<svg version="1.2" xmlns="http://www.w3.org/2000/svg" viewBox="0 0 48 48" width="48" height="48">
	<title>Love</title>
	<style>
		.s0 { fill: #ff6457 } 
		.s1 { fill: #ff917b } 
		.s2 { fill: #ffffff } 
	</style>
	<g>
		<path class="s0" d="m48 24c0 13.3-10.7 24-24 24-13.3 0-24-10.7-24-24 0-13.3 10.7-24 24-24 13.3 0 24 10.7 24 24z"/>
		<path class="s0" d="m48 24c0 13.3-10.7 24-24 24-13.3 0-24-10.7-24-24 0-13.3 10.7-24 24-24 13.3 0 24 10.7 24 24z"/>
		<path fill-rule="evenodd" class="s0" d="m26.7 16q0.7 0 1.5 0.2c2.9 1 4 4.2 3.1 7.1-0.5 1.4-1.3 2.7-2.4 3.8q-2.3 2.3-5.1 4l-0.2 0.1-0.2-0.1q-2.7-1.7-5.1-4c-1.1-1.1-1.9-2.4-2.4-3.8-0.9-2.9 0.2-6.1 3.2-7.1q0.3-0.1 0.7-0.2h0.1q0.3 0 0.6 0h0.1q0.8 0 1.5 0.3 0.1 0 0.1 0 0.3 0.1 0.5 0.2l0.3 0.2q0.1 0 0.2 0.1 0.1 0.1 0.2 0.1 0 0 0 0 0.1 0.1 0.2 0.1c0.9-0.6 2-1 3.1-1zm2.1 5.8c0.3 0 0.6-0.3 0.6-0.6v-0.1c0.1-1.2-0.6-2.2-1.6-2.6-0.4-0.1-0.7 0.1-0.9 0.4-0.1 0.4 0.1 0.7 0.4 0.9 0.6 0.1 0.9 0.6 0.9 1.2q0 0.3 0.2 0.5 0.1 0.2 0.4 0.3z"/>
		<path fill-rule="evenodd" class="s0" d="m26.7 16q0.7 0 1.5 0.2c2.9 1 4 4.2 3.1 7.1-0.5 1.4-1.3 2.7-2.4 3.8q-2.3 2.3-5.1 4l-0.2 0.1-0.2-0.1q-2.7-1.7-5.1-4c-1.1-1.1-1.9-2.4-2.4-3.8-0.9-2.9 0.2-6.1 3.2-7.1q0.3-0.1 0.7-0.2h0.1q0.3 0 0.6 0h0.1q0.8 0 1.5 0.3 0.1 0 0.1 0 0.3 0.1 0.5 0.2l0.3 0.2q0.1 0 0.2 0.1 0.1 0.1 0.2 0.1 0 0 0 0 0.1 0.1 0.2 0.1c0.9-0.6 2-1 3.1-1zm2.1 5.8c0.3 0 0.6-0.3 0.6-0.6v-0.1c0.1-1.2-0.6-2.2-1.6-2.6-0.4-0.1-0.7 0.1-0.9 0.4-0.1 0.4 0.1 0.7 0.4 0.9 0.6 0.1 0.9 0.6 0.9 1.2q0 0.3 0.2 0.5 0.1 0.2 0.4 0.3z"/>
	</g>
	<g>
		<path class="s0" d="m39 24c0 8.3-6.7 15-15 15-8.3 0-15-6.7-15-15 0-8.3 6.7-15 15-15 8.3 0 15 6.7 15 15z"/>
		<path class="s1" d="m39 24c0 8.3-6.7 15-15 15-8.3 0-15-6.7-15-15 0-8.3 6.7-15 15-15 8.3 0 15 6.7 15 15z"/>
		<path fill-rule="evenodd" class="s0" d="m25.7 19q0.5 0 0.9 0.1c1.9 0.6 2.5 2.7 2 4.4-0.4 0.9-0.9 1.8-1.5 2.4q-1.5 1.4-3.2 2.5l-0.1 0.1-0.2-0.1q-1.7-1-3.1-2.5c-0.7-0.6-1.2-1.5-1.6-2.4-0.5-1.7 0.1-3.8 2-4.4q0.2 0 0.5-0.1 0.2 0 0.4 0h0.1q0.5 0 0.9 0.2 0.1 0 0.1 0 0.1 0 0.3 0.1l0.2 0.1q0.1 0.1 0.1 0.1 0.1 0 0.1 0.1 0 0 0 0 0.1 0 0.2 0c0.5-0.4 1.2-0.6 1.9-0.6zm1.3 3.6c0.2 0 0.4-0.2 0.4-0.4 0-0.7-0.4-1.4-1.1-1.6-0.2-0.1-0.4 0-0.5 0.2 0 0.2 0.1 0.5 0.3 0.5 0.3 0.2 0.5 0.5 0.5 0.8q0 0.2 0.1 0.4 0.1 0.1 0.3 0.1z"/>
		<path fill-rule="evenodd" class="s1" d="m25.7 19q0.5 0 0.9 0.1c1.9 0.6 2.5 2.7 2 4.4-0.4 0.9-0.9 1.8-1.5 2.4q-1.5 1.4-3.2 2.5l-0.1 0.1-0.2-0.1q-1.7-1-3.1-2.5c-0.7-0.6-1.2-1.5-1.6-2.4-0.5-1.7 0.1-3.8 2-4.4q0.2 0 0.5-0.1 0.2 0 0.4 0h0.1q0.5 0 0.9 0.2 0.1 0 0.1 0 0.1 0 0.3 0.1l0.2 0.1q0.1 0.1 0.1 0.1 0.1 0 0.1 0.1 0 0 0 0 0.1 0 0.2 0c0.5-0.4 1.2-0.6 1.9-0.6zm1.3 3.6c0.2 0 0.4-0.2 0.4-0.4 0-0.7-0.4-1.4-1.1-1.6-0.2-0.1-0.4 0-0.5 0.2 0 0.2 0.1 0.5 0.3 0.5 0.3 0.2 0.5 0.5 0.5 0.8q0 0.2 0.1 0.4 0.1 0.1 0.3 0.1z"/>
	</g>
	<path class="s2" d="m26.5 18.8h4.1l1 5.8-5.1-0.9z"/>
	<path fill-rule="evenodd" class="s2" d="m27.8 17q0.8 0 1.6 0.2c3.1 1.1 4.2 4.5 3.3 7.4-0.6 1.6-1.4 3-2.6 4.1q-2.4 2.4-5.4 4.2l-0.2 0.1-0.2-0.1q-2.9-1.8-5.4-4.2c-1.1-1.1-2-2.5-2.6-4.1-0.9-2.9 0.2-6.3 3.4-7.4q0.3-0.1 0.7-0.1h0.1q0.4-0.1 0.7-0.1h0.1q0.8 0 1.6 0.3 0.1 0 0.1 0 0.3 0.1 0.6 0.2l0.3 0.2q0.1 0.1 0.2 0.1 0.1 0.1 0.1 0.1 0.1 0 0.1 0.1 0.1 0 0.2 0.1c0.9-0.7 2.1-1.1 3.3-1.1zm2.2 6.1c0.4 0 0.7-0.3 0.7-0.7v-0.1c0-1.2-0.7-2.2-1.8-2.6-0.3-0.2-0.7 0-0.8 0.4-0.2 0.3 0 0.7 0.4 0.8 0.5 0.3 0.9 0.8 0.9 1.4q0 0.3 0.1 0.5 0.2 0.2 0.5 0.3z"/>
</svg>